<svg xmlns="http://www.w3.org/2000/svg" viewBox="0 0 122 122" fill="none">
<rect width="122" height="122" rx="18" fill="#424F1A"></rect>
<g transform="translate(-2049 -446)"><path d="M2138.24 484C2148.61 484 2156.22 489.018 2159.4 497.66L2171.23 485.533C2171.31 485.457 2171.38 485.387 2171.46 485.322V498.901L2160.93 510.066V527.212C2160.93 528.745 2160.1 530 2158.44 530H2151.52C2150.27 530 2149.17 528.885 2149.17 527.212V506.722C2149.17 499.473 2144.88 494.733 2138.24 494.733C2131.6 494.734 2127.31 499.473 2127.31 506.722V527.212C2127.31 528.885 2126.2 530 2124.96 530H2118.04C2116.38 530 2115.55 528.745 2115.55 527.212V510.764L2106.83 520.66V527.212C2106.83 528.745 2106 530 2104.34 530H2097.42C2096.18 530 2095.07 528.885 2095.07 527.212V506.722C2095.07 499.473 2090.78 494.734 2084.14 494.733C2077.5 494.733 2073.21 499.473 2073.21 506.722V527.212C2073.21 528.885 2072.1 530 2070.86 530H2063.94C2062.28 530 2061.45 528.745 2061.45 527.212V510.764L2049 524.214V510.437L2066.02 492.085C2070.44 487.206 2076.26 484 2084.14 484C2097.56 484 2106.69 492.922 2106.69 506.582L2120.11 492.085C2124.68 487.206 2130.35 484 2138.24 484Z" fill="#DEFB50"></path></g>
</svg>