<svg width="2310" height="1294" viewBox="0 0 2310 1294" fill="none" xmlns="http://www.w3.org/2000/svg">
<rect width="2310" height="1294" fill="white"></rect>
<rect x="2049" y="446" width="122.46" height="122.46" rx="18" fill="#DEFB50"></rect>
<path d="M2138.24 484C2148.61 484 2156.22 489.018 2159.4 497.66L2171.23 485.533C2171.31 485.457 2171.38 485.387 2171.46 485.322V498.901L2160.93 510.066V527.212C2160.93 528.745 2160.1 530 2158.44 530H2151.52C2150.27 530 2149.17 528.885 2149.17 527.212V506.722C2149.17 499.473 2144.88 494.733 2138.24 494.733C2131.6 494.734 2127.31 499.473 2127.31 506.722V527.212C2127.31 528.885 2126.2 530 2124.96 530H2118.04C2116.38 530 2115.55 528.745 2115.55 527.212V510.764L2106.83 520.66V527.212C2106.83 528.745 2106 530 2104.34 530H2097.42C2096.18 530 2095.07 528.885 2095.07 527.212V506.722C2095.07 499.473 2090.78 494.734 2084.14 494.733C2077.5 494.733 2073.21 499.473 2073.21 506.722V527.212C2073.21 528.885 2072.1 530 2070.86 530H2063.94C2062.28 530 2061.45 528.745 2061.45 527.212V510.764L2049 524.214V510.437L2066.02 492.085C2070.44 487.206 2076.26 484 2084.14 484C2097.56 484 2106.69 492.922 2106.69 506.582L2120.11 492.085C2124.68 487.206 2130.35 484 2138.24 484Z" fill="#F35F49"></path>
<rect x="2049" y="784" width="122.46" height="122.46" rx="18" fill="#571B32"></rect>
<path d="M2138.24 822C2148.61 822 2156.22 827.018 2159.4 835.66L2171.23 823.533C2171.31 823.457 2171.38 823.387 2171.46 823.322V836.901L2160.93 848.066V865.212C2160.93 866.745 2160.1 868 2158.44 868H2151.52C2150.27 868 2149.17 866.885 2149.17 865.212V844.722C2149.17 837.473 2144.88 832.733 2138.24 832.733C2131.6 832.734 2127.31 837.473 2127.31 844.722V865.212C2127.31 866.885 2126.2 868 2124.96 868H2118.04C2116.38 868 2115.55 866.745 2115.55 865.212V848.764L2106.83 858.66V865.212C2106.83 866.745 2106 868 2104.34 868H2097.42C2096.18 868 2095.07 866.885 2095.07 865.212V844.722C2095.07 837.473 2090.78 832.734 2084.14 832.733C2077.5 832.733 2073.21 837.473 2073.21 844.722V865.212C2073.21 866.885 2072.1 868 2070.86 868H2063.94C2062.28 868 2061.45 866.745 2061.45 865.212V848.764L2049 862.214V848.437L2066.02 830.085C2070.44 825.206 2076.26 822 2084.14 822C2097.56 822 2106.69 830.922 2106.69 844.582L2120.11 830.085C2124.68 825.206 2130.35 822 2138.24 822Z" fill="#F35F49"></path>
<rect x="2049" y="615" width="122.46" height="122.46" rx="18" fill="#424F1A"></rect>
<path d="M2138.24 653C2148.61 653 2156.22 658.018 2159.4 666.66L2171.23 654.533C2171.31 654.457 2171.38 654.387 2171.46 654.322V667.901L2160.93 679.066V696.212C2160.93 697.745 2160.1 699 2158.44 699H2151.52C2150.27 699 2149.17 697.885 2149.17 696.212V675.722C2149.17 668.473 2144.88 663.733 2138.24 663.733C2131.6 663.734 2127.31 668.473 2127.31 675.722V696.212C2127.31 697.885 2126.2 699 2124.96 699H2118.04C2116.38 699 2115.55 697.745 2115.55 696.212V679.764L2106.83 689.66V696.212C2106.83 697.745 2106 699 2104.34 699H2097.42C2096.18 699 2095.07 697.885 2095.07 696.212V675.722C2095.07 668.473 2090.78 663.734 2084.14 663.733C2077.5 663.733 2073.21 668.473 2073.21 675.722V696.212C2073.21 697.885 2072.1 699 2070.86 699H2063.94C2062.28 699 2061.45 697.745 2061.45 696.212V679.764L2049 693.214V679.437L2066.02 661.085C2070.44 656.206 2076.26 653 2084.14 653C2097.56 653 2106.69 661.922 2106.69 675.582L2120.11 661.085C2124.68 656.206 2130.35 653 2138.24 653Z" fill="#FBE1FD"></path>
<rect x="2046" y="277" width="122.46" height="122.46" rx="18" fill="#F35F49"></rect>
<path d="M2135.24 315C2145.61 315 2153.22 320.018 2156.4 328.66L2168.23 316.533C2168.31 316.457 2168.38 316.387 2168.46 316.322V329.901L2157.93 341.066V358.212C2157.93 359.745 2157.1 361 2155.44 361H2148.52C2147.27 361 2146.17 359.885 2146.17 358.212V337.722C2146.17 330.473 2141.88 325.733 2135.24 325.733C2128.6 325.734 2124.31 330.473 2124.31 337.722V358.212C2124.31 359.885 2123.2 361 2121.96 361H2115.04C2113.38 361 2112.55 359.745 2112.55 358.212V341.764L2103.83 351.66V358.212C2103.83 359.745 2103 361 2101.34 361H2094.42C2093.18 361 2092.07 359.885 2092.07 358.212V337.722C2092.07 330.473 2087.78 325.734 2081.14 325.733C2074.5 325.733 2070.21 330.473 2070.21 337.722V358.212C2070.21 359.885 2069.1 361 2067.86 361H2060.94C2059.28 361 2058.45 359.745 2058.45 358.212V341.764L2046 355.214V341.437L2063.02 323.085C2067.44 318.206 2073.26 315 2081.14 315C2094.56 315 2103.69 323.922 2103.69 337.582L2117.11 323.085C2121.68 318.206 2127.35 315 2135.24 315Z" fill="#DEFB50"></path>
<path d="M60.5091 32H607.491C621.631 32 633 43.459 633 57.5514V605.448C633 619.612 621.56 631 607.491 631H60.5091C46.3691 631 35.0003 619.541 35.0003 605.448V57.6226C34.9293 43.459 46.3691 32 60.5091 32Z" fill="black"></path>
<path d="M689.466 32H1235.53C1249.65 32 1261 43.459 1261 57.5514V605.448C1261 619.612 1249.58 631 1235.53 631H689.466C675.35 631 664 619.541 664 605.448V57.6226C664 43.459 675.421 32 689.466 32Z" fill="white"></path>
<path d="M59.5517 664H607.449C621.612 664 633 675.44 633 689.509V1236.49C633 1250.63 621.541 1262 607.449 1262H59.5517C45.3881 1262 34.0003 1250.56 34.0003 1236.49V689.509C33.9292 675.369 45.3881 664 59.5517 664Z" fill="#F35F49"></path>
<path d="M690.509 664H1237.49C1251.63 664 1263 675.44 1263 689.509V1236.49C1263 1250.63 1251.56 1262 1237.49 1262H690.509C676.369 1262 665 1250.56 665 1236.49V689.509C665 675.369 676.44 664 690.509 664Z" fill="#571B32"></path>
<path d="M1318.51 664H1865.49C1879.63 664 1891 675.421 1891 689.466V1235.53C1891 1249.65 1879.56 1261 1865.49 1261H1318.51C1304.37 1261 1293 1249.58 1293 1235.53V689.466C1293 675.421 1304.44 664 1318.51 664Z" fill="#FBE1FD"></path>
<path d="M1318.51 32H1865.49C1879.63 32 1891 43.4589 1891 57.5514V605.449C1891 619.612 1879.56 631 1865.49 631H1318.51C1304.37 631 1293 619.541 1293 605.449V57.5514C1292.93 43.4589 1304.37 32 1318.51 32Z" fill="#DEFB50"></path>
<g clip-path="url(#clip0_744_87)">
<path d="M523.335 349.073C520.698 349.073 520.005 348.093 520.005 345.571V317.694C520.005 316.013 518.895 314.892 517.646 314.892H512.928C511.049 314.892 510.976 315.843 509.401 318.641C505.973 315.702 501.211 313.771 495.861 313.771C485.176 313.771 478.377 319.935 474.63 329.461C470.468 340.108 464.64 348.793 457.424 348.793C451.319 348.793 449.792 346.131 449.792 336.605V326.099H467.554C469.08 326.099 470.329 324.698 470.329 323.717C470.468 321.336 470.468 321.056 470.329 318.674C470.329 317.273 468.941 316.153 467.554 316.153H449.792V306.907C449.792 305.366 448.405 304.105 447.434 304.105C445.075 303.965 443.132 303.965 440.773 304.105C439.385 304.105 438.275 305.506 438.275 306.907V330.582C432.309 339.827 425.371 349.073 413.992 349.073C407.193 349.073 403.03 344.17 403.03 336.886C403.03 329.601 406.638 324.558 413.992 324.558C416.768 324.558 419.404 325.538 422.734 329.041C423.844 330.161 425.51 330.301 426.897 329.041L430.089 326.099C431.337 324.838 432.031 323.717 430.782 321.616C427.591 316.293 420.653 313.771 413.992 313.771C403.863 313.771 397.064 319.094 392.901 327.079C387.351 337.726 379.303 349.073 366.398 349.073C359.738 349.073 354.326 346.271 354.048 341.088H375.001C381.107 341.088 381.939 336.465 381.662 331.142C381.245 322.597 375.279 313.771 360.848 313.771C348.776 313.771 340.172 319.235 332.679 328.34C329.766 319.235 321.856 313.771 311.172 313.771C303.262 313.771 297.573 316.993 292.994 321.896L279.554 336.467C279.604 322.661 270.372 313.771 256.917 313.771C249.008 313.771 243.18 316.993 238.739 321.896L228.99 332.624C227.225 321.071 218.184 313.771 205.853 313.771C192.81 313.771 183.513 322.036 182.542 334.504C177.13 342.209 170.608 349.073 160.757 349.073C153.957 349.073 149.795 344.17 149.795 336.886C149.795 329.601 153.402 324.558 160.757 324.558C163.532 324.558 166.168 325.538 169.498 329.041C170.608 330.161 172.274 330.301 173.661 329.041L176.853 326.099C178.101 324.838 178.795 323.717 177.546 321.616C174.355 316.293 167.417 313.771 160.757 313.771C147.297 313.771 138 322.737 138 336.886C138 351.034 147.436 360 160.757 360C171.441 360 178.657 355.097 184.901 348.093C188.508 355.377 196.14 360 205.853 360C214.179 360 221.117 356.638 225.141 350.894L234.16 340.668V357.198C234.16 358.739 234.993 360 236.658 360H243.596C244.845 360 245.955 358.879 245.955 357.198V336.605C245.955 329.321 250.256 324.558 256.917 324.558C263.577 324.558 267.879 329.321 267.879 336.605V357.198C267.879 358.879 268.989 360 270.238 360H277.176C278.841 360 279.673 358.739 279.673 357.198V350.589L288.415 340.641V357.198C288.415 358.739 289.248 360 290.913 360H297.851C299.1 360 300.21 358.879 300.21 357.198V336.605C300.21 329.321 304.511 324.558 311.172 324.558C317.832 324.558 322.134 329.321 322.134 336.605V357.198C322.134 358.879 323.244 360 324.493 360H331.431C333.096 360 333.928 358.739 333.928 357.198V342.629C343.503 328.48 350.163 323.717 360.015 323.717C367.508 323.717 370.977 327.78 370.977 332.543H349.192C345.307 332.543 343.225 335.625 342.948 338.567C341.56 350.614 351.828 360 366.259 360C378.054 360 385.824 353.836 392.624 345.431C395.676 354.537 403.586 360 413.992 360C425.093 360 432.447 354.537 438.969 346.972C440.912 355.377 447.295 360 456.73 360C465.486 360 472.022 354.806 476.165 348.151C479.742 355.667 486.254 360 496.138 360C501.804 360 506.899 357.555 510.099 354.315C511.424 357.548 514.292 359.86 519.588 359.86C522.78 359.86 525 359.159 525 356.918V350.894C525 349.774 524.306 349.213 523.335 349.073ZM205.853 349.073C198.915 349.073 194.198 344.17 194.198 336.886C194.198 329.601 198.915 324.698 205.853 324.698C212.791 324.698 217.509 329.741 217.509 336.886C217.509 344.03 212.791 349.073 205.853 349.073ZM497.248 349.073C490.31 349.073 485.592 344.17 485.592 336.886C485.592 329.601 490.31 324.698 497.248 324.698C504.741 324.698 508.904 329.461 508.904 336.886C508.904 343.89 504.741 349.073 497.248 349.073Z" fill="white"></path>
</g>
<g clip-path="url(#clip1_744_87)">
<path d="M519.352 976.463C516.743 976.463 516.056 975.518 516.056 973.086V946.205C516.056 944.583 514.958 943.503 513.722 943.503H509.053C507.193 943.503 507.121 944.42 505.562 947.118C502.17 944.284 497.457 942.422 492.162 942.422C481.588 942.422 474.859 948.366 471.151 957.552C467.031 967.818 461.264 976.193 454.123 976.193C448.08 976.193 446.57 973.627 446.57 964.441V954.31H464.147C465.658 954.31 466.894 952.959 466.894 952.013C467.031 949.717 467.031 949.447 466.894 947.15C466.894 945.799 465.521 944.719 464.147 944.719H446.57V935.803C446.57 934.317 445.197 933.101 444.235 933.101C441.901 932.966 439.978 932.966 437.644 933.101C436.27 933.101 435.172 934.452 435.172 935.803V958.632C429.267 967.548 422.401 976.463 411.14 976.463C404.411 976.463 400.291 971.735 400.291 964.711C400.291 957.687 403.862 952.824 411.14 952.824C413.886 952.824 416.496 953.769 419.791 957.146C420.89 958.227 422.538 958.362 423.911 957.146L427.07 954.31C428.306 953.094 428.992 952.013 427.756 949.987C424.598 944.854 417.731 942.422 411.14 942.422C401.115 942.422 394.386 947.555 390.266 955.255C384.773 965.522 376.809 976.463 364.037 976.463C357.446 976.463 352.09 973.762 351.815 968.764H372.551C378.594 968.764 379.418 964.306 379.143 959.173C378.731 950.932 372.826 942.422 358.544 942.422C346.597 942.422 338.083 947.69 330.667 956.471C327.783 947.69 319.956 942.422 309.382 942.422C301.554 942.422 295.924 945.529 291.392 950.257L278.091 964.307C278.14 950.995 269.004 942.422 255.688 942.422C247.86 942.422 242.093 945.529 237.698 950.257L228.05 960.602C226.303 949.461 217.355 942.422 205.152 942.422C192.243 942.422 183.043 950.392 182.081 962.415C176.726 969.844 170.271 976.463 160.521 976.463C153.792 976.463 149.673 971.735 149.673 964.711C149.673 957.687 153.243 952.824 160.521 952.824C163.268 952.824 165.877 953.769 169.173 957.146C170.271 958.227 171.919 958.362 173.293 957.146L176.451 954.31C177.687 953.094 178.374 952.013 177.138 949.987C173.979 944.854 167.113 942.422 160.521 942.422C147.201 942.422 138 951.068 138 964.711C138 978.355 147.338 987 160.521 987C171.095 987 178.236 982.272 184.416 975.518C187.986 982.542 195.539 987 205.152 987C213.392 987 220.258 983.758 224.24 978.22L233.166 968.358V984.298C233.166 985.784 233.99 987 235.638 987H242.504C243.74 987 244.839 985.919 244.839 984.298V964.441C244.839 957.417 249.096 952.824 255.688 952.824C262.279 952.824 266.536 957.417 266.536 964.441V984.298C266.536 985.919 267.635 987 268.871 987H275.737C277.385 987 278.209 985.784 278.209 984.298V977.925L286.861 968.333V984.298C286.861 985.784 287.684 987 289.332 987H296.199C297.435 987 298.533 985.919 298.533 984.298V964.441C298.533 957.417 302.79 952.824 309.382 952.824C315.973 952.824 320.231 957.417 320.231 964.441V984.298C320.231 985.919 321.329 987 322.565 987H329.431C331.079 987 331.903 985.784 331.903 984.298V970.25C341.379 956.606 347.97 952.013 357.72 952.013C365.136 952.013 368.569 955.931 368.569 960.523H347.009C343.164 960.523 341.104 963.495 340.829 966.332C339.456 977.949 349.618 987 363.9 987C375.573 987 383.263 981.056 389.992 972.951C393.013 981.732 400.84 987 411.14 987C422.126 987 429.404 981.732 435.858 974.437C437.781 982.542 444.098 987 453.436 987C462.101 987 468.569 981.991 472.67 975.575C476.21 982.822 482.655 987 492.436 987C498.043 987 503.086 984.643 506.253 981.518C507.564 984.636 510.403 986.865 515.644 986.865C518.803 986.865 521 986.189 521 984.028V978.22C521 977.139 520.313 976.598 519.352 976.463ZM205.152 976.463C198.286 976.463 193.617 971.735 193.617 964.711C193.617 957.687 198.286 952.959 205.152 952.959C212.018 952.959 216.687 957.822 216.687 964.711C216.687 971.6 212.018 976.463 205.152 976.463ZM493.535 976.463C486.669 976.463 482 971.735 482 964.711C482 957.687 486.669 952.959 493.535 952.959C500.951 952.959 505.07 957.552 505.07 964.711C505.07 971.465 500.951 976.463 493.535 976.463Z" fill="#DEFB50"></path>
</g>
<g clip-path="url(#clip2_744_87)">
<path d="M1784.33 349.073C1781.7 349.073 1781 348.093 1781 345.571V317.694C1781 316.013 1779.89 314.892 1778.65 314.892H1773.93C1772.05 314.892 1771.98 315.843 1770.4 318.641C1766.97 315.702 1762.21 313.771 1756.86 313.771C1746.18 313.771 1739.38 319.935 1735.63 329.461C1731.47 340.108 1725.64 348.793 1718.42 348.793C1712.32 348.793 1710.79 346.131 1710.79 336.605V326.099H1728.55C1730.08 326.099 1731.33 324.698 1731.33 323.717C1731.47 321.336 1731.47 321.056 1731.33 318.674C1731.33 317.273 1729.94 316.153 1728.55 316.153H1710.79V306.907C1710.79 305.366 1709.4 304.105 1708.43 304.105C1706.07 303.965 1704.13 303.965 1701.77 304.105C1700.39 304.105 1699.28 305.506 1699.28 306.907V330.582C1693.31 339.827 1686.37 349.073 1674.99 349.073C1668.19 349.073 1664.03 344.17 1664.03 336.886C1664.03 329.601 1667.64 324.558 1674.99 324.558C1677.77 324.558 1680.4 325.538 1683.73 329.041C1684.84 330.161 1686.51 330.301 1687.9 329.041L1691.09 326.099C1692.34 324.838 1693.03 323.717 1691.78 321.616C1688.59 316.293 1681.65 313.771 1674.99 313.771C1664.86 313.771 1658.06 319.094 1653.9 327.079C1648.35 337.726 1640.3 349.073 1627.4 349.073C1620.74 349.073 1615.33 346.271 1615.05 341.088H1636C1642.11 341.088 1642.94 336.465 1642.66 331.142C1642.25 322.597 1636.28 313.771 1621.85 313.771C1609.78 313.771 1601.17 319.235 1593.68 328.34C1590.77 319.235 1582.86 313.771 1572.17 313.771C1564.26 313.771 1558.57 316.993 1553.99 321.896L1540.55 336.467C1540.6 322.661 1531.37 313.771 1517.92 313.771C1510.01 313.771 1504.18 316.993 1499.74 321.896L1489.99 332.624C1488.23 321.071 1479.18 313.771 1466.85 313.771C1453.81 313.771 1444.51 322.036 1443.54 334.504C1438.13 342.209 1431.61 349.073 1421.76 349.073C1414.96 349.073 1410.79 344.17 1410.79 336.886C1410.79 329.601 1414.4 324.558 1421.76 324.558C1424.53 324.558 1427.17 325.538 1430.5 329.041C1431.61 330.161 1433.27 330.301 1434.66 329.041L1437.85 326.099C1439.1 324.838 1439.8 323.717 1438.55 321.616C1435.35 316.293 1428.42 313.771 1421.76 313.771C1408.3 313.771 1399 322.737 1399 336.886C1399 351.034 1408.44 360 1421.76 360C1432.44 360 1439.66 355.097 1445.9 348.093C1449.51 355.377 1457.14 360 1466.85 360C1475.18 360 1482.12 356.638 1486.14 350.894L1495.16 340.668V357.198C1495.16 358.739 1495.99 360 1497.66 360H1504.6C1505.84 360 1506.95 358.879 1506.95 357.198V336.605C1506.95 329.321 1511.26 324.558 1517.92 324.558C1524.58 324.558 1528.88 329.321 1528.88 336.605V357.198C1528.88 358.879 1529.99 360 1531.24 360H1538.18C1539.84 360 1540.67 358.739 1540.67 357.198V350.589L1549.42 340.641V357.198C1549.42 358.739 1550.25 360 1551.91 360H1558.85C1560.1 360 1561.21 358.879 1561.21 357.198V336.605C1561.21 329.321 1565.51 324.558 1572.17 324.558C1578.83 324.558 1583.13 329.321 1583.13 336.605V357.198C1583.13 358.879 1584.24 360 1585.49 360H1592.43C1594.1 360 1594.93 358.739 1594.93 357.198V342.629C1604.5 328.48 1611.16 323.717 1621.02 323.717C1628.51 323.717 1631.98 327.78 1631.98 332.543H1610.19C1606.31 332.543 1604.23 335.625 1603.95 338.567C1602.56 350.614 1612.83 360 1627.26 360C1639.05 360 1646.82 353.836 1653.62 345.431C1656.68 354.537 1664.59 360 1674.99 360C1686.09 360 1693.45 354.537 1699.97 346.972C1701.91 355.377 1708.29 360 1717.73 360C1726.49 360 1733.02 354.806 1737.17 348.151C1740.74 355.667 1747.25 360 1757.14 360C1762.8 360 1767.9 357.555 1771.1 354.315C1772.42 357.548 1775.29 359.86 1780.59 359.86C1783.78 359.86 1786 359.159 1786 356.918V350.894C1786 349.774 1785.31 349.213 1784.33 349.073ZM1466.85 349.073C1459.92 349.073 1455.2 344.17 1455.2 336.886C1455.2 329.601 1459.92 324.698 1466.85 324.698C1473.79 324.698 1478.51 329.741 1478.51 336.886C1478.51 344.03 1473.79 349.073 1466.85 349.073ZM1758.25 349.073C1751.31 349.073 1746.59 344.17 1746.59 336.886C1746.59 329.601 1751.31 324.698 1758.25 324.698C1765.74 324.698 1769.9 329.461 1769.9 336.886C1769.9 343.89 1765.74 349.073 1758.25 349.073Z" fill="#F35F49"></path>
</g>
<g clip-path="url(#clip3_744_87)">
<path d="M1782.34 980.073C1779.71 980.073 1779.02 979.093 1779.02 976.571V948.694C1779.02 947.013 1777.91 945.892 1776.66 945.892H1771.96C1770.09 945.892 1770.01 946.843 1768.44 949.641C1765.02 946.702 1760.27 944.771 1754.94 944.771C1744.28 944.771 1737.5 950.935 1733.76 960.461C1729.61 971.108 1723.8 979.793 1716.6 979.793C1710.51 979.793 1708.99 977.131 1708.99 967.605V957.099H1726.7C1728.22 957.099 1729.47 955.698 1729.47 954.717C1729.61 952.336 1729.61 952.056 1729.47 949.674C1729.47 948.273 1728.09 947.153 1726.7 947.153H1708.99V937.907C1708.99 936.366 1707.6 935.105 1706.63 935.105C1704.28 934.965 1702.34 934.965 1699.99 935.105C1698.61 935.105 1697.5 936.506 1697.5 937.907V961.582C1691.55 970.827 1684.63 980.073 1673.28 980.073C1666.5 980.073 1662.35 975.17 1662.35 967.886C1662.35 960.601 1665.94 955.558 1673.28 955.558C1676.05 955.558 1678.68 956.538 1682 960.041C1683.11 961.161 1684.77 961.301 1686.15 960.041L1689.33 957.099C1690.58 955.838 1691.27 954.717 1690.03 952.616C1686.84 947.293 1679.92 944.771 1673.28 944.771C1663.18 944.771 1656.39 950.094 1652.24 958.079C1646.71 968.726 1638.68 980.073 1625.81 980.073C1619.16 980.073 1613.77 977.271 1613.49 972.088H1634.39C1640.48 972.088 1641.31 967.465 1641.03 962.142C1640.62 953.597 1634.67 944.771 1620.27 944.771C1608.23 944.771 1599.65 950.235 1592.18 959.34C1589.27 950.235 1581.38 944.771 1570.72 944.771C1562.84 944.771 1557.16 947.993 1552.59 952.896L1539.19 967.467C1539.24 953.661 1530.03 944.771 1516.61 944.771C1508.72 944.771 1502.91 947.993 1498.48 952.896L1488.75 963.624C1486.99 952.071 1477.98 944.771 1465.68 944.771C1452.67 944.771 1443.4 953.036 1442.43 965.504C1437.03 973.209 1430.52 980.073 1420.7 980.073C1413.92 980.073 1409.76 975.17 1409.76 967.886C1409.76 960.601 1413.36 955.558 1420.7 955.558C1423.47 955.558 1426.1 956.538 1429.42 960.041C1430.52 961.161 1432.19 961.301 1433.57 960.041L1436.75 957.099C1438 955.838 1438.69 954.717 1437.44 952.616C1434.26 947.293 1427.34 944.771 1420.7 944.771C1407.27 944.771 1398 953.737 1398 967.886C1398 982.034 1407.41 991 1420.7 991C1431.35 991 1438.55 986.097 1444.78 979.093C1448.38 986.377 1455.99 991 1465.68 991C1473.98 991 1480.9 987.638 1484.92 981.894L1493.91 971.668V988.198C1493.91 989.739 1494.74 991 1496.4 991H1503.32C1504.57 991 1505.68 989.879 1505.68 988.198V967.605C1505.68 960.321 1509.97 955.558 1516.61 955.558C1523.25 955.558 1527.54 960.321 1527.54 967.605V988.198C1527.54 989.879 1528.65 991 1529.9 991H1536.82C1538.48 991 1539.31 989.739 1539.31 988.198V981.589L1548.03 971.641V988.198C1548.03 989.739 1548.86 991 1550.52 991H1557.44C1558.68 991 1559.79 989.879 1559.79 988.198V967.605C1559.79 960.321 1564.08 955.558 1570.72 955.558C1577.37 955.558 1581.66 960.321 1581.66 967.605V988.198C1581.66 989.879 1582.77 991 1584.01 991H1590.93C1592.59 991 1593.42 989.739 1593.42 988.198V973.629C1602.97 959.48 1609.61 954.717 1619.44 954.717C1626.92 954.717 1630.38 958.78 1630.38 963.543H1608.65C1604.77 963.543 1602.69 966.625 1602.42 969.567C1601.03 981.614 1611.28 991 1625.67 991C1637.43 991 1645.18 984.836 1651.97 976.431C1655.01 985.537 1662.9 991 1673.28 991C1684.35 991 1691.69 985.537 1698.19 977.972C1700.13 986.377 1706.5 991 1715.91 991C1724.64 991 1731.16 985.806 1735.29 979.151C1738.86 986.667 1745.35 991 1755.21 991C1760.86 991 1765.95 988.555 1769.14 985.315C1770.46 988.548 1773.32 990.86 1778.6 990.86C1781.79 990.86 1784 990.159 1784 987.918V981.894C1784 980.774 1783.31 980.213 1782.34 980.073ZM1465.68 980.073C1458.76 980.073 1454.05 975.17 1454.05 967.886C1454.05 960.601 1458.76 955.698 1465.68 955.698C1472.6 955.698 1477.3 960.741 1477.3 967.886C1477.3 975.03 1472.6 980.073 1465.68 980.073ZM1756.32 980.073C1749.4 980.073 1744.69 975.17 1744.69 967.886C1744.69 960.601 1749.4 955.698 1756.32 955.698C1763.79 955.698 1767.95 960.461 1767.95 967.886C1767.95 974.89 1763.79 980.073 1756.32 980.073Z" fill="#424F1A"></path>
</g>
<g clip-path="url(#clip4_744_87)">
<path d="M1150.35 976.463C1147.74 976.463 1147.06 975.518 1147.06 973.086V946.205C1147.06 944.583 1145.96 943.503 1144.72 943.503H1140.05C1138.19 943.503 1138.12 944.42 1136.56 947.118C1133.17 944.284 1128.46 942.422 1123.16 942.422C1112.59 942.422 1105.86 948.366 1102.15 957.552C1098.03 967.818 1092.26 976.193 1085.12 976.193C1079.08 976.193 1077.57 973.627 1077.57 964.441V954.31H1095.15C1096.66 954.31 1097.89 952.959 1097.89 952.013C1098.03 949.717 1098.03 949.447 1097.89 947.15C1097.89 945.799 1096.52 944.719 1095.15 944.719H1077.57V935.803C1077.57 934.317 1076.2 933.101 1075.24 933.101C1072.9 932.966 1070.98 932.966 1068.64 933.101C1067.27 933.101 1066.17 934.452 1066.17 935.803V958.632C1060.27 967.548 1053.4 976.463 1042.14 976.463C1035.41 976.463 1031.29 971.735 1031.29 964.711C1031.29 957.687 1034.86 952.824 1042.14 952.824C1044.89 952.824 1047.5 953.769 1050.79 957.146C1051.89 958.227 1053.54 958.362 1054.91 957.146L1058.07 954.31C1059.31 953.094 1059.99 952.013 1058.76 949.987C1055.6 944.854 1048.73 942.422 1042.14 942.422C1032.12 942.422 1025.39 947.555 1021.27 955.255C1015.77 965.522 1007.81 976.463 995.037 976.463C988.446 976.463 983.09 973.762 982.815 968.764H1003.55C1009.59 968.764 1010.42 964.306 1010.14 959.173C1009.73 950.932 1003.83 942.422 989.544 942.422C977.597 942.422 969.083 947.69 961.667 956.471C958.783 947.69 950.956 942.422 940.382 942.422C932.554 942.422 926.924 945.529 922.392 950.257L909.091 964.307C909.14 950.995 900.004 942.422 886.688 942.422C878.86 942.422 873.093 945.529 868.698 950.257L859.05 960.602C857.303 949.461 848.355 942.422 836.152 942.422C823.243 942.422 814.043 950.392 813.081 962.415C807.726 969.844 801.271 976.463 791.521 976.463C784.792 976.463 780.673 971.735 780.673 964.711C780.673 957.687 784.243 952.824 791.521 952.824C794.268 952.824 796.877 953.769 800.173 957.146C801.271 958.227 802.919 958.362 804.293 957.146L807.451 954.31C808.687 953.094 809.374 952.013 808.138 949.987C804.979 944.854 798.113 942.422 791.521 942.422C778.201 942.422 769 951.068 769 964.711C769 978.355 778.338 987 791.521 987C802.095 987 809.236 982.272 815.416 975.518C818.986 982.542 826.539 987 836.152 987C844.392 987 851.258 983.758 855.24 978.22L864.166 968.358V984.298C864.166 985.784 864.99 987 866.638 987H873.504C874.74 987 875.839 985.919 875.839 984.298V964.441C875.839 957.417 880.096 952.824 886.688 952.824C893.279 952.824 897.536 957.417 897.536 964.441V984.298C897.536 985.919 898.635 987 899.871 987H906.737C908.385 987 909.209 985.784 909.209 984.298V977.925L917.861 968.333V984.298C917.861 985.784 918.684 987 920.332 987H927.199C928.435 987 929.533 985.919 929.533 984.298V964.441C929.533 957.417 933.79 952.824 940.382 952.824C946.973 952.824 951.231 957.417 951.231 964.441V984.298C951.231 985.919 952.329 987 953.565 987H960.431C962.079 987 962.903 985.784 962.903 984.298V970.25C972.379 956.606 978.97 952.013 988.72 952.013C996.136 952.013 999.569 955.931 999.569 960.523H978.009C974.164 960.523 972.104 963.495 971.829 966.332C970.456 977.949 980.618 987 994.9 987C1006.57 987 1014.26 981.056 1020.99 972.951C1024.01 981.732 1031.84 987 1042.14 987C1053.13 987 1060.4 981.732 1066.86 974.437C1068.78 982.542 1075.1 987 1084.44 987C1093.1 987 1099.57 981.991 1103.67 975.575C1107.21 982.822 1113.65 987 1123.44 987C1129.04 987 1134.09 984.643 1137.25 981.518C1138.56 984.636 1141.4 986.865 1146.64 986.865C1149.8 986.865 1152 986.189 1152 984.028V978.22C1152 977.139 1151.31 976.598 1150.35 976.463ZM836.152 976.463C829.286 976.463 824.617 971.735 824.617 964.711C824.617 957.687 829.286 952.959 836.152 952.959C843.018 952.959 847.687 957.822 847.687 964.711C847.687 971.6 843.018 976.463 836.152 976.463ZM1124.53 976.463C1117.67 976.463 1113 971.735 1113 964.711C1113 957.687 1117.67 952.959 1124.53 952.959C1131.95 952.959 1136.07 957.552 1136.07 964.711C1136.07 971.465 1131.95 976.463 1124.53 976.463Z" fill="#F35F49"></path>
</g>
<g clip-path="url(#clip5_744_87)">
<path d="M1154.33 349.073C1151.7 349.073 1151 348.093 1151 345.571V317.694C1151 316.013 1149.89 314.892 1148.65 314.892H1143.93C1142.05 314.892 1141.98 315.843 1140.4 318.641C1136.97 315.702 1132.21 313.771 1126.86 313.771C1116.18 313.771 1109.38 319.935 1105.63 329.461C1101.47 340.108 1095.64 348.793 1088.42 348.793C1082.32 348.793 1080.79 346.131 1080.79 336.605V326.099H1098.55C1100.08 326.099 1101.33 324.698 1101.33 323.717C1101.47 321.336 1101.47 321.056 1101.33 318.674C1101.33 317.273 1099.94 316.153 1098.55 316.153H1080.79V306.907C1080.79 305.366 1079.4 304.105 1078.43 304.105C1076.07 303.965 1074.13 303.965 1071.77 304.105C1070.39 304.105 1069.28 305.506 1069.28 306.907V330.582C1063.31 339.827 1056.37 349.073 1044.99 349.073C1038.19 349.073 1034.03 344.17 1034.03 336.886C1034.03 329.601 1037.64 324.558 1044.99 324.558C1047.77 324.558 1050.4 325.538 1053.73 329.041C1054.84 330.161 1056.51 330.301 1057.9 329.041L1061.09 326.099C1062.34 324.838 1063.03 323.717 1061.78 321.616C1058.59 316.293 1051.65 313.771 1044.99 313.771C1034.86 313.771 1028.06 319.094 1023.9 327.079C1018.35 337.726 1010.3 349.073 997.398 349.073C990.738 349.073 985.326 346.271 985.048 341.088H1006C1012.11 341.088 1012.94 336.465 1012.66 331.142C1012.25 322.597 1006.28 313.771 991.848 313.771C979.776 313.771 971.172 319.235 963.679 328.34C960.766 319.235 952.856 313.771 942.172 313.771C934.262 313.771 928.573 316.993 923.994 321.896L910.554 336.467C910.604 322.661 901.372 313.771 887.917 313.771C880.008 313.771 874.18 316.993 869.739 321.896L859.99 332.624C858.225 321.071 849.184 313.771 836.853 313.771C823.81 313.771 814.513 322.036 813.542 334.504C808.13 342.209 801.608 349.073 791.757 349.073C784.957 349.073 780.795 344.17 780.795 336.886C780.795 329.601 784.402 324.558 791.757 324.558C794.532 324.558 797.168 325.538 800.498 329.041C801.608 330.161 803.274 330.301 804.661 329.041L807.853 326.099C809.101 324.838 809.795 323.717 808.546 321.616C805.355 316.293 798.417 313.771 791.757 313.771C778.297 313.771 769 322.737 769 336.886C769 351.034 778.436 360 791.757 360C802.441 360 809.657 355.097 815.901 348.093C819.508 355.377 827.14 360 836.853 360C845.179 360 852.117 356.638 856.141 350.894L865.16 340.668V357.198C865.16 358.739 865.993 360 867.658 360H874.596C875.845 360 876.955 358.879 876.955 357.198V336.605C876.955 329.321 881.256 324.558 887.917 324.558C894.577 324.558 898.879 329.321 898.879 336.605V357.198C898.879 358.879 899.989 360 901.238 360H908.176C909.841 360 910.673 358.739 910.673 357.198V350.589L919.415 340.641V357.198C919.415 358.739 920.248 360 921.913 360H928.851C930.1 360 931.21 358.879 931.21 357.198V336.605C931.21 329.321 935.511 324.558 942.172 324.558C948.832 324.558 953.134 329.321 953.134 336.605V357.198C953.134 358.879 954.244 360 955.493 360H962.431C964.096 360 964.928 358.739 964.928 357.198V342.629C974.503 328.48 981.163 323.717 991.015 323.717C998.508 323.717 1001.98 327.78 1001.98 332.543H980.192C976.307 332.543 974.225 335.625 973.948 338.567C972.56 350.614 982.828 360 997.259 360C1009.05 360 1016.82 353.836 1023.62 345.431C1026.68 354.537 1034.59 360 1044.99 360C1056.09 360 1063.45 354.537 1069.97 346.972C1071.91 355.377 1078.29 360 1087.73 360C1096.49 360 1103.02 354.806 1107.17 348.151C1110.74 355.667 1117.25 360 1127.14 360C1132.8 360 1137.9 357.555 1141.1 354.315C1142.42 357.548 1145.29 359.86 1150.59 359.86C1153.78 359.86 1156 359.159 1156 356.918V350.894C1156 349.774 1155.31 349.213 1154.33 349.073ZM836.853 349.073C829.915 349.073 825.198 344.17 825.198 336.886C825.198 329.601 829.915 324.698 836.853 324.698C843.791 324.698 848.509 329.741 848.509 336.886C848.509 344.03 843.791 349.073 836.853 349.073ZM1128.25 349.073C1121.31 349.073 1116.59 344.17 1116.59 336.886C1116.59 329.601 1121.31 324.698 1128.25 324.698C1135.74 324.698 1139.9 329.461 1139.9 336.886C1139.9 343.89 1135.74 349.073 1128.25 349.073Z" fill="black"></path>
</g>
<defs>
<clipPath id="clip0_744_87">
<rect width="387" height="56" fill="white" transform="translate(138 304)"></rect>
</clipPath>
<clipPath id="clip1_744_87">
<rect width="383" height="54" fill="white" transform="translate(138 933)"></rect>
</clipPath>
<clipPath id="clip2_744_87">
<rect width="387" height="56" fill="white" transform="translate(1399 304)"></rect>
</clipPath>
<clipPath id="clip3_744_87">
<rect width="386" height="56" fill="white" transform="translate(1398 935)"></rect>
</clipPath>
<clipPath id="clip4_744_87">
<rect width="383" height="54" fill="white" transform="translate(769 933)"></rect>
</clipPath>
<clipPath id="clip5_744_87">
<rect width="387" height="56" fill="white" transform="translate(769 304)"></rect>
</clipPath>
</defs>
</svg>