<svg xmlns="http://www.w3.org/2000/svg" viewBox="138 304 387 56" fill="none">

<path d="M523.335 349.073C520.698 349.073 520.005 348.093 520.005 345.571V317.694C520.005 316.013 518.895 314.892 517.646 314.892H512.928C511.049 314.892 510.976 315.843 509.401 318.641C505.973 315.702 501.211 313.771 495.861 313.771C485.176 313.771 478.377 319.935 474.63 329.461C470.468 340.108 464.64 348.793 457.424 348.793C451.319 348.793 449.792 346.131 449.792 336.605V326.099H467.554C469.08 326.099 470.329 324.698 470.329 323.717C470.468 321.336 470.468 321.056 470.329 318.674C470.329 317.273 468.941 316.153 467.554 316.153H449.792V306.907C449.792 305.366 448.405 304.105 447.434 304.105C445.075 303.965 443.132 303.965 440.773 304.105C439.385 304.105 438.275 305.506 438.275 306.907V330.582C432.309 339.827 425.371 349.073 413.992 349.073C407.193 349.073 403.03 344.17 403.03 336.886C403.03 329.601 406.638 324.558 413.992 324.558C416.768 324.558 419.404 325.538 422.734 329.041C423.844 330.161 425.51 330.301 426.897 329.041L430.089 326.099C431.337 324.838 432.031 323.717 430.782 321.616C427.591 316.293 420.653 313.771 413.992 313.771C403.863 313.771 397.064 319.094 392.901 327.079C387.351 337.726 379.303 349.073 366.398 349.073C359.738 349.073 354.326 346.271 354.048 341.088H375.001C381.107 341.088 381.939 336.465 381.662 331.142C381.245 322.597 375.279 313.771 360.848 313.771C348.776 313.771 340.172 319.235 332.679 328.34C329.766 319.235 321.856 313.771 311.172 313.771C303.262 313.771 297.573 316.993 292.994 321.896L279.554 336.467C279.604 322.661 270.372 313.771 256.917 313.771C249.008 313.771 243.18 316.993 238.739 321.896L228.99 332.624C227.225 321.071 218.184 313.771 205.853 313.771C192.81 313.771 183.513 322.036 182.542 334.504C177.13 342.209 170.608 349.073 160.757 349.073C153.957 349.073 149.795 344.17 149.795 336.886C149.795 329.601 153.402 324.558 160.757 324.558C163.532 324.558 166.168 325.538 169.498 329.041C170.608 330.161 172.274 330.301 173.661 329.041L176.853 326.099C178.101 324.838 178.795 323.717 177.546 321.616C174.355 316.293 167.417 313.771 160.757 313.771C147.297 313.771 138 322.737 138 336.886C138 351.034 147.436 360 160.757 360C171.441 360 178.657 355.097 184.901 348.093C188.508 355.377 196.14 360 205.853 360C214.179 360 221.117 356.638 225.141 350.894L234.16 340.668V357.198C234.16 358.739 234.993 360 236.658 360H243.596C244.845 360 245.955 358.879 245.955 357.198V336.605C245.955 329.321 250.256 324.558 256.917 324.558C263.577 324.558 267.879 329.321 267.879 336.605V357.198C267.879 358.879 268.989 360 270.238 360H277.176C278.841 360 279.673 358.739 279.673 357.198V350.589L288.415 340.641V357.198C288.415 358.739 289.248 360 290.913 360H297.851C299.1 360 300.21 358.879 300.21 357.198V336.605C300.21 329.321 304.511 324.558 311.172 324.558C317.832 324.558 322.134 329.321 322.134 336.605V357.198C322.134 358.879 323.244 360 324.493 360H331.431C333.096 360 333.928 358.739 333.928 357.198V342.629C343.503 328.48 350.163 323.717 360.015 323.717C367.508 323.717 370.977 327.78 370.977 332.543H349.192C345.307 332.543 343.225 335.625 342.948 338.567C341.56 350.614 351.828 360 366.259 360C378.054 360 385.824 353.836 392.624 345.431C395.676 354.537 403.586 360 413.992 360C425.093 360 432.447 354.537 438.969 346.972C440.912 355.377 447.295 360 456.73 360C465.486 360 472.022 354.806 476.165 348.151C479.742 355.667 486.254 360 496.138 360C501.804 360 506.899 357.555 510.099 354.315C511.424 357.548 514.292 359.86 519.588 359.86C522.78 359.86 525 359.159 525 356.918V350.894C525 349.774 524.306 349.213 523.335 349.073ZM205.853 349.073C198.915 349.073 194.198 344.17 194.198 336.886C194.198 329.601 198.915 324.698 205.853 324.698C212.791 324.698 217.509 329.741 217.509 336.886C217.509 344.03 212.791 349.073 205.853 349.073ZM497.248 349.073C490.31 349.073 485.592 344.17 485.592 336.886C485.592 329.601 490.31 324.698 497.248 324.698C504.741 324.698 508.904 329.461 508.904 336.886C508.904 343.89 504.741 349.073 497.248 349.073Z" fill="#FBE1FD"></path>

</svg>